<svg viewBox="0 0 314.2 129.44" xmlns="http://www.w3.org/2000/svg" xmlns:xlink="http://www.w3.org/1999/xlink" id="Layer_1" overflow="hidden"><defs></defs><g><path d="M103.89 99.17C101.69 82.55 93.51 68.99 85.14 68.92 76.77 68.92 64.55 82.49 57.43 99.19 50.31 115.89 58.37 129.43 76.28 129.43 94.3 129.24 106.09 115.81 103.89 99.16" fill="#E02535"/><path d="M18.5 54.92 18.5 54.92C7.8 54.92 0 63.37 0 74.07 0 84.77 7.8 92.96 18.5 92.96 24.45 92.96 30.07 90.29 33.78 85.65 33.38 85.27 32.35 83.08 28.91 83.08 25.66 83.08 24.93 86.33 18.51 86.33 12.09 86.33 7 80.99 7 74.06 7 67.13 12.22 61.54 18.51 61.54 24.25 61.54 25.63 64.95 28.57 64.95 31.51 64.95 33.24 62.59 33.65 62.22 29.94 57.58 24.46 54.91 18.51 54.91" fill="#231815"/><path d="M56.21 56.03 41.18 56.03C38.64 56.03 36.86 57.56 36.86 59.98L36.86 62.2 43.56 62.2C43.56 62.2 43.81 84.84 43.53 87.29L43.53 87.29C43.44 89.17 42.63 93.64 38.32 95.66 34.78 97.32 34.75 98.9 34.57 101.36L34.57 101.36C34.62 101.54 34.69 101.65 34.8 101.65L34.82 101.65C34.82 101.65 34.85 101.65 34.86 101.65 34.99 101.62 38.37 100.78 38.86 100.58L38.85 100.58C42.03 99.58 46.89 97.4 49.2 92.9 49.2 92.9 51.37 89.56 51.33 82.39L51.33 62.21 51.65 62.21C54.2 62.21 56.22 60.69 56.22 58.26L56.22 56.04" fill="#231815"/><path d="M133.75 44.11C118.07 37.95 102.23 38.59 98.18 45.9 94.23 53.31 100.09 70.44 111.25 84.77 122.4 99.09 138.14 98.61 146.83 82.95 155.42 67.33 149.38 50.27 133.75 44.12" fill="#EA8B00"/><path d="M54.01 49.12C67.93 58.63 83.52 61.5 89.04 55.33 94.61 49.12 92.69 30.96 85 14.51 77.31-1.94 61.85-4.98 49.9 8.36 38.1 21.68 40.13 39.64 54.01 49.12" fill="#0079C3"/></g><g><path d="M179.72 81.91C178.12 82.19 175.92 82.42 173.76 82.59 171.61 82.76 169.33 82.84 166.93 82.84L160.12 82.84 160.12 61.02C160.12 59.86 160.45 58.96 161.11 58.31 161.77 57.67 162.64 57.34 163.72 57.34L176.6 57.34 176.6 59.16C176.6 59.62 176.52 59.98 176.35 60.22 176.18 60.46 175.98 60.65 175.75 60.78 175.54 60.91 175.34 60.99 175.13 61.01 174.92 61.04 174.78 61.05 174.7 61.05L165.72 61.05 165.72 79.16 170.75 79.16C171.83 79.16 173.16 79.1 174.74 78.97 176.31 78.84 178.19 78.66 179.71 78.42L179.71 59.54C179.71 58.38 179.99 57.48 180.56 56.83 181.13 56.18 181.96 55.86 183.04 55.86L185.4 55.86 185.4 67.04 188.14 67.04 188.14 59.54C188.14 58.38 188.43 57.48 189.01 56.83 189.59 56.18 190.41 55.86 191.47 55.86L193.83 55.86 193.83 89.25C193.83 90.43 193.55 91.34 193 91.97 192.45 92.61 191.65 92.92 190.62 92.92L188.14 92.92 188.14 70.71 185.4 70.71 185.4 89.25C185.4 90.43 185.11 91.34 184.53 91.97 183.95 92.61 183.15 92.92 182.11 92.92L179.71 92.92 179.71 81.89Z" fill="#231815"/><path d="M236.54 69.29 230.43 69.29 230.43 79.07C230.43 80.26 230.14 81.16 229.56 81.77 228.98 82.39 228.16 82.71 227.1 82.71L224.74 82.71 224.74 59.58C224.74 58.42 225.03 57.52 225.61 56.87 226.18 56.23 226.98 55.91 227.98 55.91L230.42 55.91 230.42 65.58 234.64 65.58C234.71 65.58 234.86 65.6 235.06 65.64 235.27 65.68 235.47 65.76 235.68 65.9 235.91 66.02 236.11 66.21 236.28 66.46 236.45 66.71 236.53 67.03 236.53 67.45L236.53 69.3ZM213.99 67.76C213.99 67.02 213.86 66.32 213.61 65.64 213.36 64.96 213.02 64.38 212.6 63.88 212.18 63.38 211.68 62.98 211.1 62.67 210.52 62.37 209.91 62.22 209.26 62.22 208.61 62.22 208 62.37 207.42 62.67 206.84 62.97 206.34 63.38 205.92 63.88 205.49 64.38 205.16 64.97 204.92 65.64 204.68 66.31 204.56 67.02 204.56 67.76 204.56 69.35 205.02 70.68 205.93 71.78 206.85 72.88 207.96 73.42 209.25 73.42 210.54 73.42 211.66 72.87 212.59 71.78 213.52 70.69 213.98 69.35 213.98 67.76M230.81 89.25 230.81 90.99C230.81 91.46 230.73 91.82 230.56 92.07 230.39 92.33 230.19 92.52 229.96 92.65 229.75 92.78 229.54 92.86 229.32 92.88 229.1 92.91 228.95 92.92 228.87 92.92L204 92.92 204 84.41C204 83.25 204.28 82.34 204.85 81.69 205.42 81.05 206.24 80.73 207.33 80.73L209.69 80.73 209.69 89.24 230.82 89.24ZM220.27 60.19C220.27 60.67 220.18 61.04 220.01 61.3 219.83 61.56 219.63 61.76 219.41 61.89 219.19 62.02 218.97 62.1 218.76 62.12 218.54 62.15 218.39 62.16 218.31 62.16L217.66 62.16C218.34 62.95 218.87 63.82 219.25 64.75 219.64 65.69 219.83 66.69 219.83 67.74 219.83 69.08 219.54 70.33 218.97 71.46 218.4 72.6 217.62 73.57 216.64 74.39 215.69 75.21 214.57 75.85 213.29 76.31 212.01 76.77 210.66 77 209.25 77 207.84 77 206.45 76.78 205.17 76.33 203.89 75.88 202.77 75.24 201.82 74.39 200.84 73.57 200.07 72.6 199.52 71.46 198.96 70.33 198.68 69.08 198.68 67.74 198.68 66.71 198.87 65.72 199.26 64.77 199.64 63.82 200.18 62.95 200.89 62.16L198.24 62.16 198.24 60.38C198.24 59.93 198.32 59.58 198.48 59.31 198.65 59.04 198.85 58.85 199.1 58.71 199.31 58.58 199.53 58.49 199.75 58.46 199.97 58.42 200.13 58.4 200.24 58.4L206.32 58.4 206.32 57.57C206.32 56.7 206.53 56.02 206.95 55.53 207.37 55.04 208.02 54.79 208.89 54.79L212.36 54.79 212.36 58.39 220.28 58.39 220.28 60.17Z" fill="#231815"/><path d="M262.56 86.76C262.56 86.13 262.39 85.54 262.07 84.97 261.74 84.41 261.31 83.9 260.77 83.45 260.2 83.01 259.54 82.65 258.81 82.39 258.07 82.13 257.3 81.99 256.47 81.99 255.64 81.99 254.81 82.12 254.06 82.39 253.31 82.65 252.66 83.01 252.12 83.45 251.55 83.9 251.11 84.4 250.8 84.97 250.49 85.54 250.33 86.13 250.33 86.76 250.33 87.39 250.49 88.03 250.8 88.61 251.11 89.19 251.55 89.7 252.12 90.14 252.66 90.56 253.3 90.9 254.06 91.15 254.81 91.4 255.61 91.52 256.47 91.52 257.33 91.52 258.07 91.39 258.81 91.15 259.55 90.9 260.2 90.56 260.77 90.14 261.31 89.7 261.74 89.19 262.07 88.61 262.4 88.04 262.56 87.42 262.56 86.76M268.64 86.72 268.68 86.72C268.68 87.9 268.36 89.01 267.7 90.05 267.05 91.08 266.16 91.98 265.06 92.74 263.95 93.5 262.66 94.1 261.17 94.55 259.68 94.99 258.11 95.22 256.47 95.22 254.83 95.22 253.21 94.99 251.72 94.55 250.23 94.1 248.93 93.5 247.83 92.74 246.72 91.98 245.85 91.08 245.21 90.05 244.57 89.01 244.25 87.91 244.25 86.72 244.25 85.6 244.57 84.52 245.21 83.5 245.85 82.48 246.72 81.59 247.83 80.83 248.93 80.07 250.23 79.46 251.72 79.01 253.21 78.57 254.79 78.34 256.47 78.34 258.15 78.34 259.67 78.56 261.15 79.01 262.63 79.46 263.92 80.06 265.02 80.83 266.13 81.59 267.01 82.48 267.66 83.5 268.31 84.52 268.63 85.6 268.63 86.72M269.89 63.47C269.89 63.91 269.81 64.26 269.64 64.52 269.47 64.78 269.27 64.96 269.04 65.06 268.83 65.19 268.63 65.26 268.42 65.29 268.21 65.32 268.07 65.33 267.99 65.33L248.06 65.33 248.06 67.36 270.19 67.36 270.19 69.1C270.19 69.54 270.09 69.89 269.92 70.14 269.74 70.4 269.55 70.59 269.34 70.72 269.11 70.85 268.89 70.93 268.68 70.95 268.47 70.97 268.33 70.99 268.25 70.99L259.19 70.99 259.19 73.57 274.9 73.57 274.9 75.2C274.9 75.66 274.81 76.02 274.63 76.28 274.45 76.54 274.26 76.73 274.05 76.86 273.81 76.99 273.59 77.07 273.39 77.09 273.18 77.12 273.04 77.13 272.97 77.13L237.99 77.13 237.99 75.35C237.99 74.94 238.07 74.61 238.24 74.36 238.4 74.12 238.59 73.94 238.8 73.84 239.03 73.71 239.25 73.63 239.45 73.61 239.66 73.59 239.81 73.57 239.92 73.57L253.58 73.57 253.58 70.99 242.32 70.99 242.32 60.24C242.32 59.06 242.78 58.03 243.71 57.17 244.63 56.31 245.76 55.88 247.07 55.88L270.13 55.88 270.13 57.66C270.13 58.1 270.04 58.45 269.88 58.71 269.71 58.97 269.51 59.16 269.28 59.29 269.07 59.42 268.87 59.49 268.66 59.52 268.45 59.55 268.31 59.56 268.23 59.56L248.03 59.56 248.03 61.71 269.85 61.71 269.85 63.49Z" fill="#231815"/><path d="M301.7 63.32C301.7 62.58 301.54 61.87 301.22 61.19 300.9 60.52 300.47 59.94 299.94 59.45 299.41 58.94 298.77 58.53 298.04 58.24 297.3 57.95 296.54 57.8 295.74 57.8 294.94 57.8 294.13 57.94 293.4 58.24 292.67 58.53 292.03 58.93 291.5 59.45 290.94 59.93 290.5 60.51 290.2 61.19 289.89 61.87 289.74 62.58 289.74 63.32 289.74 64.11 289.89 64.85 290.2 65.52 290.51 66.2 290.94 66.79 291.5 67.3 292.03 67.79 292.66 68.17 293.4 68.45 294.14 68.73 294.92 68.87 295.74 68.87 296.56 68.87 297.31 68.73 298.04 68.45 298.77 68.17 299.41 67.79 299.94 67.3 300.47 66.79 300.9 66.2 301.22 65.52 301.54 64.85 301.7 64.11 301.7 63.32M307.63 63.32C307.63 64.57 307.31 65.74 306.69 66.82 306.06 67.9 305.21 68.86 304.15 69.67 303.08 70.47 301.83 71.09 300.39 71.55 298.95 72.01 297.4 72.24 295.74 72.24 294.08 72.24 292.58 72.02 291.14 71.57 289.7 71.12 288.43 70.49 287.34 69.67 286.27 68.88 285.42 67.94 284.8 66.86 284.17 65.77 283.86 64.6 283.86 63.32 283.86 62.12 284.16 60.98 284.78 59.91 285.4 58.84 286.25 57.9 287.34 57.08 288.41 56.29 289.66 55.66 291.1 55.18 292.54 54.71 294.09 54.47 295.74 54.47 297.39 54.47 298.9 54.71 300.35 55.18 301.79 55.65 303.04 56.28 304.11 57.08 305.21 57.9 306.07 58.84 306.7 59.91 307.32 60.98 307.64 62.12 307.64 63.32M310 91C310 91.47 309.92 91.83 309.75 92.08 309.58 92.34 309.4 92.53 309.19 92.66 308.98 92.79 308.78 92.87 308.57 92.89 308.37 92.92 308.23 92.93 308.14 92.93L281.93 92.93 281.93 85.04C281.93 83.88 282.21 82.99 282.76 82.36 283.31 81.72 284.13 81.41 285.22 81.41L287.62 81.41 287.62 89.27 309.99 89.27 309.99 91.01ZM314.21 75.45C314.21 75.89 314.12 76.24 313.94 76.49 313.76 76.75 313.57 76.94 313.36 77.07 313.13 77.23 312.91 77.32 312.71 77.34 312.5 77.36 312.36 77.38 312.28 77.38L299.05 77.38 299.05 80.01C299.05 81.23 298.76 82.15 298.18 82.78 297.6 83.41 296.81 83.73 295.8 83.73L293.4 83.73 293.4 77.38 277.3 77.38 277.3 75.68C277.3 75.24 277.38 74.89 277.55 74.64 277.72 74.38 277.9 74.2 278.11 74.1 278.35 73.97 278.57 73.89 278.77 73.87 278.97 73.84 279.13 73.83 279.24 73.83L314.22 73.83 314.22 75.45Z" fill="#231815"/></g></svg>