<svg viewBox="0 0 673.01 109.6" xmlns="http://www.w3.org/2000/svg" xmlns:xlink="http://www.w3.org/1999/xlink" id="_레이어_1" overflow="hidden"><defs></defs><path d="M287.85 37.18 287.85 41.55 243.86 41.55 243.86 37.18 263.26 37.18 263.26 28.44C261.35 28.23 259.58 27.83 257.93 27.22 256.28 26.61 254.85 25.82 253.64 24.83 252.43 23.84 251.47 22.67 250.78 21.32 250.09 19.97 249.74 18.48 249.74 16.85L249.74 14.35C249.74 12.55 250.16 10.92 251.01 9.46 251.86 8 253.02 6.77 254.49 5.77 255.96 4.77 257.68 3.98 259.64 3.43 261.6 2.88 263.67 2.6 265.85 2.6 268.03 2.6 270.1 2.88 272.06 3.43 274.02 3.98 275.73 4.76 277.21 5.77 278.68 6.78 279.84 8.01 280.69 9.46 281.54 10.92 281.96 12.55 281.96 14.35L281.96 16.85C281.96 18.48 281.6 19.97 280.89 21.32 280.18 22.67 279.22 23.84 278 24.83 276.79 25.82 275.36 26.62 273.71 27.22 272.06 27.83 270.29 28.23 268.38 28.44L268.38 37.18 287.83 37.18ZM265.86 7.07C264.37 7.07 262.96 7.24 261.62 7.59 260.29 7.94 259.11 8.44 258.08 9.1 257.06 9.76 256.25 10.56 255.66 11.49 255.07 12.43 254.78 13.47 254.78 14.61L254.78 16.59C254.78 17.73 255.07 18.77 255.66 19.71 256.25 20.65 257.06 21.44 258.08 22.1 259.1 22.76 260.28 23.26 261.62 23.61 262.95 23.96 264.37 24.13 265.86 24.13 267.35 24.13 268.76 23.96 270.1 23.61 271.43 23.26 272.61 22.76 273.64 22.1 274.66 21.44 275.47 20.64 276.06 19.71 276.65 18.77 276.94 17.73 276.94 16.59L276.94 14.61C276.94 13.47 276.65 12.43 276.06 11.49 275.47 10.55 274.66 9.76 273.64 9.1 272.62 8.44 271.44 7.94 270.1 7.59 268.77 7.24 267.35 7.07 265.86 7.07Z" fill="#0B3C84"/><path d="M310.58 47.94 310.58 31.77 291.18 31.77 291.18 27.4 335.17 27.4 335.17 31.77 315.77 31.77 315.77 47.94 310.57 47.94ZM311.93 20.44C310.4 20.65 308.58 20.82 306.47 20.96 304.35 21.1 302.03 21.17 299.5 21.17L295.5 21.17 295.5 2.76 310.84 2.76 310.84 7.08 300.44 7.08 300.44 16.86 301.17 16.86C303.01 16.86 304.83 16.8 306.63 16.68 308.43 16.56 310.06 16.41 311.52 16.24L311.94 20.45ZM330.65 16.85 330.65 21.17 313.75 21.17 313.75 2.76 330.13 2.76 330.13 7.08 318.69 7.08 318.69 16.86 330.65 16.86Z" fill="#0B3C84"/><path d="M340.53 33.38C343.3 31.75 345.65 30.3 347.58 29.04 349.5 27.77 351.11 26.61 352.39 25.56 353.67 24.5 354.68 23.52 355.41 22.6 356.14 21.68 356.68 20.76 357.05 19.84 357.41 18.92 357.64 17.96 357.73 16.95 357.82 15.94 357.86 14.82 357.86 13.57L357.86 8.84 341.48 8.84 341.48 4.42 362.96 4.42 362.96 13.62C362.96 15.18 362.92 16.59 362.83 17.86 362.74 19.13 362.49 20.32 362.08 21.45 361.66 22.58 361.05 23.69 360.23 24.78 359.42 25.87 358.27 27.04 356.8 28.29 355.33 29.54 353.49 30.91 351.29 32.4 349.09 33.89 346.41 35.59 343.26 37.5L340.56 33.39ZM373.08 47.94 373.08 0 378.23 0 378.23 47.94 373.08 47.94Z" fill="#0B3C84"/><path d="M423.42 16.74 410.42 16.74 410.42 20.74 429.82 20.74 429.82 25 385.83 25 385.83 20.74 405.23 20.74 405.23 16.74 392.23 16.74 392.23 1.09 423.43 1.09 423.43 16.74ZM392.11 48.26 392.11 36.35 418.42 36.35 418.42 32.81 391.85 32.81 391.85 28.6 423.47 28.6 423.47 40.46 397.16 40.46 397.16 44.05 424.88 44.05 424.88 48.26 392.12 48.26ZM418.37 5.36 397.26 5.36 397.26 12.48 418.37 12.48 418.37 5.36Z" fill="#0B3C84"/><path d="M6.06 78.82 6.06 90.58 11.7 90.58C13.7 90.58 15.52 90.56 17.16 90.52 18.8 90.48 20.37 90.41 21.87 90.31 23.37 90.21 24.83 90.09 26.25 89.95 27.67 89.81 29.16 89.62 30.72 89.38L31.26 94.36C29.86 94.56 28.45 94.74 27.03 94.9 25.61 95.06 24.07 95.2 22.41 95.32 20.75 95.44 18.93 95.53 16.95 95.59 14.97 95.65 12.74 95.68 10.26 95.68L0.18 95.68 0.18 73.84 19.02 73.84 19.02 63.22 0 63.22 0 58.12 24.9 58.12 24.9 78.82 6.06 78.82ZM36 109.06 36 53.74 41.94 53.74 41.94 109.06 36 109.06Z" fill="#231815"/><path d="M82.8 108.94 82.8 89.68 69.48 89.68 69.48 108.94 63.54 108.94 63.54 89.68 50.76 89.68 50.76 84.64 101.52 84.64 101.52 89.68 88.74 89.68 88.74 108.94 82.8 108.94ZM63.78 55.6 63.78 72.34 94.86 72.34 94.86 77.44 57.84 77.44 57.84 55.6 63.78 55.6Z" fill="#231815"/><path d="M145.68 81.28 145.68 69.58 134.64 69.58C134.48 70.82 134.08 72.06 133.44 73.3 132.8 74.54 131.91 75.65 130.77 76.63 129.63 77.61 128.24 78.41 126.6 79.03 124.96 79.65 123.08 79.96 120.96 79.96 118.68 79.96 116.68 79.61 114.96 78.91 113.24 78.21 111.81 77.3 110.67 76.18 109.53 75.06 108.67 73.83 108.09 72.49 107.51 71.15 107.22 69.82 107.22 68.5L107.22 66.22C107.22 64.9 107.51 63.57 108.09 62.23 108.67 60.89 109.53 59.66 110.67 58.54 111.81 57.42 113.24 56.51 114.96 55.81 116.68 55.11 118.68 54.76 120.96 54.76 123 54.76 124.81 55.04 126.39 55.6 127.97 56.16 129.33 56.91 130.47 57.85 131.61 58.79 132.52 59.84 133.2 61 133.88 62.16 134.32 63.34 134.52 64.54L145.68 64.54 145.68 53.74 151.56 53.74 151.56 81.28 145.68 81.28ZM120.96 74.86C122.24 74.86 123.38 74.67 124.38 74.29 125.38 73.91 126.22 73.41 126.9 72.79 127.58 72.17 128.1 71.46 128.46 70.66 128.82 69.86 129 69.06 129 68.26L129 66.46C129 65.66 128.82 64.87 128.46 64.09 128.1 63.31 127.58 62.61 126.9 61.99 126.22 61.37 125.38 60.87 124.38 60.49 123.38 60.11 122.24 59.92 120.96 59.92 119.68 59.92 118.54 60.11 117.54 60.49 116.54 60.87 115.7 61.37 115.02 61.99 114.34 62.61 113.82 63.31 113.46 64.09 113.1 64.87 112.92 65.66 112.92 66.46L112.92 68.26C112.92 69.06 113.1 69.86 113.46 70.66 113.82 71.46 114.34 72.17 115.02 72.79 115.7 73.41 116.54 73.91 117.54 74.29 118.54 74.67 119.68 74.86 120.96 74.86ZM117.3 109.42 117.3 94.3 145.74 94.3 145.74 88.96 117 88.96 117 84.04 151.56 84.04 151.56 99.1 123.12 99.1 123.12 104.5 153.12 104.5 153.12 109.42 117.3 109.42Z" fill="#231815"/><path d="M225.72 96.64 225.72 101.68 174.96 101.68 174.96 96.64 225.72 96.64ZM220.44 81.34 220.44 86.26 180.24 86.26 180.24 81.34 187.98 81.34 187.98 63.4 180.66 63.4 180.66 58.48 219.96 58.48 219.96 63.4 212.76 63.4 212.76 81.34 220.44 81.34ZM193.92 81.34 206.82 81.34 206.82 63.4 193.92 63.4 193.92 81.34Z" fill="#231815"/><path d="M236.7 87.64 236.7 70.3 267.06 70.3 267.06 63.16 236.46 63.16 236.46 58.12 272.94 58.12 272.94 75.34 242.58 75.34 242.58 82.6 274.26 82.6 274.26 87.64 257.88 87.64 257.88 96.64 280.32 96.64 280.32 101.68 229.56 101.68 229.56 96.64 252 96.64 252 87.64 236.7 87.64Z" fill="#231815"/><path d="M286.08 57.22 309.42 57.22 309.42 62.14 300.9 62.14 300.9 66.04C300.9 66.8 300.94 67.48 301.02 68.08 301.1 68.68 301.25 69.27 301.47 69.85 301.69 70.43 302 71.01 302.4 71.59 302.8 72.17 303.34 72.82 304.02 73.54 305.06 74.62 306.18 75.67 307.38 76.69 308.58 77.71 309.92 78.8 311.4 79.96L307.68 84.1C306.32 82.94 305.13 81.9 304.11 80.98 303.09 80.06 302.18 79.2 301.38 78.4 300.62 77.64 299.94 76.96 299.34 76.36 298.74 75.76 298.34 75.24 298.14 74.8L298.08 74.8C297.92 75.28 297.53 75.88 296.91 76.6 296.29 77.32 295.7 77.96 295.14 78.52 294.34 79.36 293.24 80.41 291.84 81.67 290.44 82.93 288.9 84.28 287.22 85.72L283.56 81.64C285.44 80.12 287.15 78.69 288.69 77.35 290.23 76.01 291.4 74.86 292.2 73.9 292.84 73.14 293.35 72.47 293.73 71.89 294.11 71.31 294.4 70.75 294.6 70.21 294.8 69.67 294.94 69.1 295.02 68.5 295.1 67.9 295.14 67.2 295.14 66.4L295.14 62.14 286.08 62.14 286.08 57.22ZM294.9 89.02 331.2 89.02 331.2 109.6 325.26 109.6 325.26 94.12 294.9 94.12 294.9 89.02ZM307.38 67.18 315.12 67.18 315.12 54.46 320.76 54.46 320.76 86.02 315.12 86.02 315.12 72.28 307.38 72.28 307.38 67.18ZM325.5 53.74 331.2 53.74 331.2 86.14 325.5 86.14 325.5 53.74Z" fill="#231815"/><path d="M389.52 96.64 389.52 101.68 338.76 101.68 338.76 96.64 389.52 96.64ZM382.98 87.52 345.6 87.52 345.6 57.88 382.14 57.88 382.14 62.92 351.54 62.92 351.54 70.24 381.72 70.24 381.72 75.16 351.54 75.16 351.54 82.48 382.98 82.48 382.98 87.52Z" fill="#231815"/><path d="M422.4 82.12C422.2 82.72 421.87 83.35 421.41 84.01 420.95 84.67 420.42 85.36 419.82 86.08 418.62 87.52 417.28 89.04 415.8 90.64 414.32 92.24 412.78 93.86 411.18 95.5L407.16 91.48C408.96 89.76 410.64 88.08 412.2 86.44 413.76 84.8 415.18 83.14 416.46 81.46 417.66 79.9 418.46 78.36 418.86 76.84 419.26 75.32 419.46 73.7 419.46 71.98L419.46 64.06 409.98 64.06 409.98 59.08 434.1 59.08 434.1 64.06 425.22 64.06 425.22 71.98C425.22 73.7 425.45 75.3 425.91 76.78 426.37 78.26 427.2 79.78 428.4 81.34 429.68 82.98 431 84.54 432.36 86.02 433.72 87.5 435.3 89.1 437.1 90.82L433.08 94.78C431.48 93.18 430.03 91.69 428.73 90.31 427.43 88.93 426.18 87.52 424.98 86.08 424.38 85.36 423.86 84.67 423.42 84.01 422.98 83.35 422.66 82.72 422.46 82.12L422.4 82.12ZM439.74 54.88 445.56 54.88 445.56 106.36 439.74 106.36 439.74 77.02 431.34 77.02 431.34 71.86 439.74 71.86 439.74 54.88ZM456.54 109.06 450.72 109.06 450.72 53.74 456.54 53.74 456.54 109.06Z" fill="#231815"/><path d="M464.45 68.62C464.45 67.26 464.73 65.83 465.29 64.33 465.85 62.83 466.71 61.46 467.87 60.22 469.03 58.98 470.47 57.96 472.19 57.16 473.91 56.36 475.95 55.96 478.31 55.96 480.67 55.96 482.66 56.36 484.4 57.16 486.14 57.96 487.59 58.98 488.75 60.22 489.91 61.46 490.77 62.83 491.33 64.33 491.89 65.83 492.17 67.26 492.17 68.62L492.17 71.74C492.17 73.1 491.89 74.53 491.33 76.03 490.77 77.53 489.91 78.9 488.75 80.14 487.59 81.38 486.14 82.4 484.4 83.2 482.66 84 480.63 84.4 478.31 84.4 475.99 84.4 473.91 84 472.19 83.2 470.47 82.4 469.03 81.38 467.87 80.14 466.71 78.9 465.85 77.53 465.29 76.03 464.73 74.53 464.45 73.1 464.45 71.74L464.45 68.62ZM486.48 68.86C486.48 67.94 486.32 67.02 486 66.1 485.68 65.18 485.19 64.35 484.53 63.61 483.87 62.87 483.03 62.27 482.01 61.81 480.99 61.35 479.76 61.12 478.32 61.12 476.88 61.12 475.64 61.35 474.6 61.81 473.56 62.27 472.71 62.87 472.05 63.61 471.39 64.35 470.91 65.18 470.61 66.1 470.31 67.02 470.16 67.94 470.16 68.86L470.16 71.5C470.16 72.42 470.32 73.34 470.64 74.26 470.96 75.18 471.45 76.01 472.11 76.75 472.77 77.49 473.61 78.09 474.63 78.55 475.65 79.01 476.88 79.24 478.32 79.24 479.76 79.24 480.99 79.01 482.01 78.55 483.03 78.09 483.87 77.49 484.53 76.75 485.19 76.01 485.68 75.18 486 74.26 486.32 73.34 486.48 72.42 486.48 71.5L486.48 68.86ZM478.79 103.3 508.13 103.3 508.13 108.46 472.85 108.46 472.85 90.1 478.79 90.1 478.79 103.3ZM514.49 74.38 506.63 74.38 506.63 93.22 500.75 93.22 500.75 53.74 506.63 53.74 506.63 69.22 514.49 69.22 514.49 74.38Z" fill="#231815"/><path d="M568.31 96.64 568.31 101.68 517.55 101.68 517.55 96.64 530.21 96.64 530.21 83.26C528.41 82.1 526.98 80.67 525.92 78.97 524.86 77.27 524.33 75.32 524.33 73.12L524.33 70.24C524.33 68.16 524.82 66.29 525.8 64.63 526.78 62.97 528.12 61.55 529.82 60.37 531.52 59.19 533.5 58.29 535.76 57.67 538.02 57.05 540.41 56.74 542.93 56.74 545.45 56.74 547.84 57.05 550.1 57.67 552.36 58.29 554.34 59.19 556.04 60.37 557.74 61.55 559.08 62.97 560.06 64.63 561.04 66.29 561.53 68.16 561.53 70.24L561.53 73.12C561.53 75.32 561 77.27 559.94 78.97 558.88 80.67 557.45 82.1 555.65 83.26L555.65 96.64 568.31 96.64ZM542.93 61.9C541.21 61.9 539.58 62.1 538.04 62.5 536.5 62.9 535.14 63.47 533.96 64.21 532.78 64.95 531.85 65.86 531.17 66.94 530.49 68.02 530.15 69.22 530.15 70.54L530.15 72.82C530.15 74.14 530.49 75.34 531.17 76.42 531.85 77.5 532.78 78.41 533.96 79.15 535.14 79.89 536.5 80.46 538.04 80.86 539.58 81.26 541.21 81.46 542.93 81.46 544.65 81.46 546.28 81.26 547.82 80.86 549.36 80.46 550.72 79.89 551.9 79.15 553.08 78.41 554.01 77.5 554.69 76.42 555.37 75.34 555.71 74.14 555.71 72.82L555.71 70.54C555.71 69.22 555.37 68.02 554.69 66.94 554.01 65.86 553.08 64.95 551.9 64.21 550.72 63.47 549.36 62.9 547.82 62.5 546.28 62.1 544.65 61.9 542.93 61.9ZM542.93 86.56C540.53 86.56 538.25 86.28 536.09 85.72L536.09 96.64 549.77 96.64 549.77 85.72C547.53 86.28 545.25 86.56 542.93 86.56Z" fill="#231815"/><path d="M600.35 70.9C600.35 72.22 600.08 73.6 599.54 75.04 599 76.48 598.16 77.79 597.02 78.97 595.88 80.15 594.45 81.12 592.73 81.88 591.01 82.64 588.97 83.02 586.61 83.02 584.25 83.02 582.21 82.64 580.49 81.88 578.77 81.12 577.34 80.15 576.2 78.97 575.06 77.79 574.22 76.48 573.68 75.04 573.14 73.6 572.87 72.22 572.87 70.9L572.87 67.84C572.87 66.52 573.14 65.14 573.68 63.7 574.22 62.26 575.06 60.95 576.2 59.77 577.34 58.59 578.77 57.62 580.49 56.86 582.21 56.1 584.25 55.72 586.61 55.72 588.97 55.72 591.01 56.1 592.73 56.86 594.45 57.62 595.88 58.59 597.02 59.77 598.16 60.95 599 62.26 599.54 63.7 600.08 65.14 600.35 66.52 600.35 67.84L600.35 70.9ZM594.65 68.14C594.65 67.26 594.49 66.39 594.17 65.53 593.85 64.67 593.36 63.89 592.7 63.19 592.04 62.49 591.2 61.93 590.18 61.51 589.16 61.09 587.97 60.88 586.61 60.88 585.25 60.88 584.01 61.09 583.01 61.51 582.01 61.93 581.18 62.49 580.52 63.19 579.86 63.89 579.37 64.67 579.05 65.53 578.73 66.39 578.57 67.26 578.57 68.14L578.57 70.6C578.57 71.48 578.73 72.35 579.05 73.21 579.37 74.07 579.86 74.85 580.52 75.55 581.18 76.25 582.01 76.81 583.01 77.23 584.01 77.65 585.21 77.86 586.61 77.86 588.01 77.86 589.16 77.65 590.18 77.23 591.2 76.81 592.04 76.25 592.7 75.55 593.36 74.85 593.85 74.07 594.17 73.21 594.49 72.35 594.65 71.48 594.65 70.6L594.65 68.14ZM580.25 88.72 615.23 88.72 615.23 109.6 609.29 109.6 609.29 93.82 580.25 93.82 580.25 88.72ZM623.03 66.34 615.23 66.34 615.23 72.58 623.03 72.58 623.03 77.68 615.23 77.68 615.23 85.84 609.41 85.84 609.41 53.74 615.23 53.74 615.23 61.24 623.03 61.24 623.03 66.34Z" fill="#231815"/><path d="M643.43 81.28C643.15 81.96 642.74 82.64 642.2 83.32 641.66 84 640.91 84.86 639.95 85.9 638.71 87.26 637.29 88.73 635.69 90.31 634.09 91.89 632.27 93.62 630.23 95.5L626.33 91.48C629.97 88.24 633.13 85.14 635.81 82.18 636.73 81.14 637.49 80.18 638.09 79.3 638.69 78.42 639.16 77.55 639.5 76.69 639.84 75.83 640.08 74.95 640.22 74.05 640.36 73.15 640.43 72.16 640.43 71.08L640.43 57.76 646.43 57.76 646.43 71.08C646.43 72.28 646.51 73.35 646.67 74.29 646.83 75.23 647.09 76.13 647.45 76.99 647.81 77.85 648.3 78.71 648.92 79.57 649.54 80.43 650.31 81.36 651.23 82.36 652.51 83.76 653.85 85.13 655.25 86.47 656.65 87.81 658.25 89.28 660.05 90.88L656.21 94.96C654.13 93.04 652.38 91.37 650.96 89.95 649.54 88.53 648.25 87.2 647.09 85.96 646.25 85.04 645.5 84.18 644.84 83.38 644.18 82.58 643.73 81.88 643.49 81.28L643.43 81.28ZM667.07 109.06 667.07 76.06 655.31 76.06 655.31 70.84 667.07 70.84 667.07 53.74 673.01 53.74 673.01 109.06 667.07 109.06Z" fill="#231815"/></svg>