<svg viewBox="0 0 814.58 786.04" xmlns="http://www.w3.org/2000/svg" xmlns:xlink="http://www.w3.org/1999/xlink" id="_레이어_1" overflow="hidden"><style>
.MsftOfcThm_Background1_Fill_v2 {
 fill:#FFFFFF; 
}
</style>
<defs></defs><path d="M654.4 233.21C654.4 233.21 641.11 0.14 407.61 0L406.82 0C173.46 0.14 160.16 233.21 160.16 233.21 88.34 242.34 46.79 293.24 46.79 293.24-28.05 369.73 9.34 484.47 9.34 484.47 56.5 642.05 170.37 711.79 170.37 711.79 261.96 773.04 350.89 785.12 407.18 786.05L407.4 786.05C463.69 785.19 552.69 773.04 644.28 711.79 644.28 711.79 758.15 642.06 805.24 484.47 805.24 484.4 842.62 369.73 767.86 293.24 767.86 293.24 726.31 242.34 654.42 233.21ZM770.51 479.68C726.94 625.26 622.27 687.08 622.27 687.08 537.87 743.51 457.86 754.87 407.32 754.94L407.18 754.94C356.71 754.87 276.7 743.51 192.3 687.08 192.3 687.08 87.63 625.33 44.13 479.68 44.13 479.68 8.26 380.62 76.26 310.95 76.26 310.95 112.28 270.55 192.36 262.35 192.36 262.35 196.6 31.08 407.17 31.01L407.31 31.01C617.8 31.08 622.19 262.35 622.19 262.35 702.2 270.55 738.22 310.95 738.22 310.95 806.3 380.54 770.5 479.68 770.5 479.68Z" class="MsftOfcThm_Background1_Fill_v2" fill="#FFFFFF" fill-opacity="0.47"/><path d="M651.61 332.5C626.66 331.28 554.49 332.5 554.49 332.5 554.49 332.5 498.99 405.25 408.55 406.04 318.69 406.83 262.61 332.5 262.61 332.5 262.61 332.5 190.43 331.28 165.49 332.5-28.54 341.92 108.84 727.18 408.55 723.44 713 719.56 843.41 341.85 651.61 332.5ZM416.17 431.38 485.33 431.45 485.33 450.36 458.3 450.36 458.3 500.39 485.33 500.39 485.33 519.15 428.97 519.15 428.9 519.08C422.07 519.08 416.54 513.62 416.39 506.86L416.18 506.64 416.18 431.37ZM404.59 431.38 404.59 450.43 382.09 450.43 382.09 500.25 404.59 500.25 404.59 519.23 352.61 519.23 352.54 519.16 352.4 519.16C345.5 519.16 339.82 513.55 339.75 506.65L339.75 506.44C339.75 506.44 339.68 506.37 339.68 506.22L339.61 431.38 404.6 431.38ZM324.15 582.64 324.15 601.91 178.64 601.91 178.64 582.64 228.39 582.64 228.39 546.41C197.55 538.79 175.05 515.79 175.05 488.83 175.05 455.4 209.13 428.37 251.18 428.37 293.23 428.37 327.31 455.47 327.38 488.83 327.38 515.93 304.88 538.87 273.82 546.49L273.82 582.65 324.14 582.65ZM487.05 552.68 432.92 552.68 432.92 594.16 432.85 594.16C432.78 603.79 422.64 611.63 410.2 611.63 397.76 611.63 387.63 603.72 387.63 594.02 387.63 593.44 387.7 592.73 387.77 592.15L387.77 552.75 337.88 552.75 337.88 532.98 487.05 532.98 487.05 552.68ZM582.3 558.39C582.3 605.26 510.91 602.31 510.91 602.31L510.84 602.24C504.44 602.24 500.56 597.28 500.56 590.95 500.56 584.62 504.51 580.67 511.99 579.52L511.92 579.52C541.97 573.84 541.97 554.07 541.97 554.07L541.97 450.91 500.85 450.91 500.85 431.14 582.3 431.14 582.3 558.38ZM643.13 590.72C643.13 600.43 634.72 608.19 622.28 608.19 609.84 608.19 600.5 600.35 600.5 590.72L600.5 428.25 643.13 428.25 643.13 590.72Z" class="MsftOfcThm_Background1_Fill_v2" fill="#FFFFFF" fill-opacity="0.47"/><path d="M250.82 443.46C232.13 443.46 216.96 463.09 216.96 487.24 216.96 511.39 232.13 530.95 250.82 530.95 269.51 530.95 284.61 511.33 284.68 487.24 284.68 463.09 269.51 443.46 250.82 443.46Z" class="MsftOfcThm_Background1_Fill_v2" fill="#FFFFFF" fill-opacity="0.47"/><path d="M531.84 305.76C542.62 297.64 579.5 265.86 552.04 236.6 584.96 171.9 507.68 41.78 373.1 83.76 373.1 83.76 338.52 59.89 310.2 85.77 310.2 85.77 286.76 105.61 300.71 138.39 291.08 148.53 282.95 160.03 276.48 172.61 276.05 173.4 275.69 174.19 275.26 175.06 274.83 175.99 274.33 176.93 273.89 177.86 272.96 179.8 272.09 181.74 271.3 183.68 271.23 183.75 271.23 183.9 271.16 183.97 270.23 186.27 269.36 188.64 268.5 191.02 268.5 191.067 268.477 191.113 268.43 191.16 263.76 204.53 261.24 218.19 260.67 231.49 260.6 233.43 260.6 235.37 260.53 237.24 260.53 237.67 260.46 238.17 260.46 238.61 260.82 384.76 470.16 424.44 531.84 305.76ZM285.47 239.62C285.47 239.12 285.47 238.61 285.54 238.11 285.4 229.84 286.4 221.86 288.2 214.39 292.94 192.18 303.94 172.26 319.18 156.52 320.62 156.74 323.71 157.02 323.71 157.02 356.28 159.9 372.81 147.53 372.81 147.53 424.21 177.8 430.32 141.56 430.32 141.56 405.09 144.15 416.09 129.84 416.09 129.84 422.27 121.14 437.37 124.16 437.37 124.16 515.37 136.96 490.57 189.15 490.57 189.15 514.29 202.38 503.37 213.52 503.37 213.52 487.55 209.21 485.61 215.17 487.7 222.22 489.79 229.34 495.39 234.44 500.86 239.47 504.74 243.06 507.26 248.1 508.84 252.05 509.56 253.56 510.06 255.28 510.49 257.01 510.63 257.58 510.78 258.16 510.85 258.74 511.35 261.69 511.64 264.42 511.86 266.29 512.65 267.08 513.8 266.29 514.81 265.07 519.12 254.86 536.23 243.21 536.23 260.54 536.01 281.24 515.09 275.57 515.09 275.57 499.35 334.66 435.94 346.38 407.4 346.38 342.63 346.38 289.65 303.17 285.55 239.48L285.48 239.62Z" class="MsftOfcThm_Background1_Fill_v2" fill="#FFFFFF" fill-opacity="0.47"/><path d="M359.16 261.81C350.89 254.69 340.18 245.13 328.75 244.48 325.44 244.27 323.07 247.28 329.76 250.66 347.59 259.58 358.23 277.4 375.48 287.04 395.9 298.47 419.4 298.61 441.11 290.99 452.11 287.18 471.45 275.32 468.36 268.99 467.64 267.55 465.7 267.19 463.54 268.34 460.59 269.92 457.86 272.01 454.91 273.66 450.24 276.32 438.52 282.36 432.41 282.36 441.11 267.91 438.23 254.68 428.89 252.96 421.63 251.59 417.68 255.4 409.55 263.24 402.29 270.21 393.59 275.6 384.82 275.1 374.68 274.53 366.56 268.2 359.15 261.8ZM424.94 266.48C422.64 277.77 416.46 282.37 416.46 282.37 410.71 283.88 403.02 282.37 403.02 282.37 403.02 282.37 417.97 280.36 424.95 266.48Z" class="MsftOfcThm_Background1_Fill_v2" fill="#FFFFFF" fill-opacity="0.47"/><path d="M337.8 173.78C343.12 172.56 348.51 172.63 353.11 175.58 357.71 178.53 360.15 180.47 361.45 177.16 362.46 174.64 361.23 169.76 359.15 167.38 354.05 161.41 341.54 152.79 320.11 173.99 320.11 173.99 305.23 189.81 322.48 180.24 326.87 177.8 332.26 175.06 337.79 173.77Z" class="MsftOfcThm_Background1_Fill_v2" fill="#FFFFFF" fill-opacity="0.47"/><path d="M452.9 174.49C467.13 158.46 482.73 166.01 482.73 166.01 478.2 135.96 457.78 148.9 457.78 148.9L438.58 157.31C425.71 163.71 433.33 172.48 433.33 172.48 444.11 183.26 452.89 174.49 452.89 174.49Z" class="MsftOfcThm_Background1_Fill_v2" fill="#FFFFFF" fill-opacity="0.47"/><path d="M424.22 240.01C435.29 239.87 444.13 230.95 443.99 219.95 443.92 208.95 434.93 200.04 423.93 200.18 412.93 200.25 404.09 209.17 404.16 220.17 404.16 231.24 413.22 240.08 424.22 240.01Z" class="MsftOfcThm_Background1_Fill_v2" fill="#FFFFFF" fill-opacity="0.47"/><path d="M365.34 214.59C365.34 214.59 348.09 218.69 367.79 230.33 367.79 230.33 386.05 240.47 385.91 229.4 385.91 229.4 374.7 230.84 382.03 217.61 383.04 215.81 383.47 213.73 383.32 211.64 382.75 205.89 380.3 195.1 369.95 194.03 369.95 194.03 382.03 211.71 365.35 214.59Z" class="MsftOfcThm_Background1_Fill_v2" fill="#FFFFFF" fill-opacity="0.47"/><path d="M325.51 205.56C329.03 204.19 333.2 204.12 336.94 204.7 343.41 205.71 349.09 209.59 355.42 210.95 355.92 211.09 356.57 211.02 356.86 210.66 357.15 210.23 357.08 209.58 357.08 209.08 356.94 207.64 356.43 206.2 355.93 204.84 355.14 202.75 354.42 200.67 353.27 198.73 351.76 196.21 349.68 193.91 347.3 192.19 343.92 189.82 339.97 188.6 335.87 188.38 334.07 188.31 332.2 188.45 330.41 188.67 328.32 188.96 326.17 189.39 324.01 189.96 322.28 190.39 320.63 190.97 319.12 191.61 315.38 193.26 319.19 194.05 321.42 194.27 323.36 194.49 325.3 194.49 327.31 194.49 331.26 194.42 341.54 194.13 347.44 201.39 347.22 201.25 347.08 201.1 346.86 201.03 338.45 195.71 329.89 197.94 324 200.74 320.12 202.61 317.1 204.69 317.53 206.28 318.1 208.22 323.28 206.42 325.51 205.56Z" class="MsftOfcThm_Background1_Fill_v2" fill="#FFFFFF" fill-opacity="0.47"/></svg>